<svg version="1.1" id="Layer_1" xmlns="http://www.w3.org/2000/svg" xmlns:xlink="http://www.w3.org/1999/xlink" x="0px" y="0px" viewBox="0 0 400 200" enable-background="new 0 0 400 200" xml:space="preserve" width="100"><path id="XMLID_11_" d="M309.202,21.653c-33.601,0-63.601,20.398-75.604,49.197c-9.603-8.402-20.398-13.204-33.601-13.204 s-23.999,4.801-32.401,13.204c-13.204-28.8-42.003-49.197-75.604-49.197C45.202,21.653,8,58.847,8,104.451 s37.202,82.798,82.798,82.798s82.806-37.194,82.806-82.798c0-14.404,10.803-25.199,25.199-25.199 c14.404,0,25.199,10.803,25.199,25.199c0,45.604,37.202,82.798,82.798,82.798S392,150.056,392,104.451 S354.806,21.653,309.202,21.653z M90.798,165.652c-33.601,0-61.201-27.599-61.201-61.201s27.599-61.201,61.201-61.201	s61.201,27.599,61.201,61.201S125.6,165.652,90.798,165.652z M309.202,165.652c-33.601,0-61.201-27.599-61.201-61.201 s27.599-61.201,61.201-61.201s61.201,27.599,61.201,61.201S342.803,165.652,309.202,165.652z"></path></svg>
